<mxfile host="Electron" agent="Mozilla/5.0 (Windows NT 10.0; Win64; x64) AppleWebKit/537.36 (KHTML, like Gecko) draw.io/26.2.15 Chrome/134.0.6998.205 Electron/35.2.1 Safari/537.36" version="26.2.15">
  <diagram name="Page-1" id="493lvP2nIgtcKDJKepwn">
    <mxGraphModel dx="1965" dy="1310" grid="1" gridSize="10" guides="1" tooltips="1" connect="1" arrows="1" fold="1" page="1" pageScale="1" pageWidth="850" pageHeight="1100" math="0" shadow="0">
      <root>
        <mxCell id="0" />
        <mxCell id="1" parent="0" />
        <mxCell id="2y1tFKn66F9KIt5L6c37-43" style="edgeStyle=orthogonalEdgeStyle;rounded=0;orthogonalLoop=1;jettySize=auto;html=1;exitX=0.5;exitY=1;exitDx=0;exitDy=0;entryX=0.5;entryY=0;entryDx=0;entryDy=0;" edge="1" parent="1" source="2y1tFKn66F9KIt5L6c37-1" target="2y1tFKn66F9KIt5L6c37-2">
          <mxGeometry relative="1" as="geometry" />
        </mxCell>
        <mxCell id="2y1tFKn66F9KIt5L6c37-1" value="PEMBAYARAN" style="rounded=1;whiteSpace=wrap;html=1;" vertex="1" parent="1">
          <mxGeometry x="370" y="90" width="120" height="60" as="geometry" />
        </mxCell>
        <mxCell id="2y1tFKn66F9KIt5L6c37-42" style="edgeStyle=orthogonalEdgeStyle;rounded=0;orthogonalLoop=1;jettySize=auto;html=1;exitX=0.5;exitY=1;exitDx=0;exitDy=0;entryX=0.5;entryY=0;entryDx=0;entryDy=0;" edge="1" parent="1" source="2y1tFKn66F9KIt5L6c37-2" target="2y1tFKn66F9KIt5L6c37-3">
          <mxGeometry relative="1" as="geometry" />
        </mxCell>
        <mxCell id="2y1tFKn66F9KIt5L6c37-47" value="STATUS_VALID" style="edgeLabel;html=1;align=center;verticalAlign=middle;resizable=0;points=[];" vertex="1" connectable="0" parent="2y1tFKn66F9KIt5L6c37-42">
          <mxGeometry x="-0.2571" relative="1" as="geometry">
            <mxPoint as="offset" />
          </mxGeometry>
        </mxCell>
        <mxCell id="2y1tFKn66F9KIt5L6c37-44" style="edgeStyle=orthogonalEdgeStyle;rounded=0;orthogonalLoop=1;jettySize=auto;html=1;exitX=1;exitY=0.5;exitDx=0;exitDy=0;endArrow=doubleBlock;endFill=1;dashed=1;strokeWidth=2;" edge="1" parent="1" source="2y1tFKn66F9KIt5L6c37-2">
          <mxGeometry relative="1" as="geometry">
            <mxPoint x="700" y="240" as="targetPoint" />
          </mxGeometry>
        </mxCell>
        <mxCell id="2y1tFKn66F9KIt5L6c37-48" value="status&amp;nbsp;≠ STATUS_VALID" style="edgeLabel;html=1;align=center;verticalAlign=middle;resizable=0;points=[];" vertex="1" connectable="0" parent="2y1tFKn66F9KIt5L6c37-44">
          <mxGeometry x="-0.1555" y="-6" relative="1" as="geometry">
            <mxPoint y="-16" as="offset" />
          </mxGeometry>
        </mxCell>
        <mxCell id="2y1tFKn66F9KIt5L6c37-2" value="status" style="rhombus;whiteSpace=wrap;html=1;" vertex="1" parent="1">
          <mxGeometry x="390" y="200" width="80" height="80" as="geometry" />
        </mxCell>
        <mxCell id="2y1tFKn66F9KIt5L6c37-53" style="edgeStyle=orthogonalEdgeStyle;rounded=0;orthogonalLoop=1;jettySize=auto;html=1;exitX=0;exitY=0.5;exitDx=0;exitDy=0;entryX=0.5;entryY=0;entryDx=0;entryDy=0;" edge="1" parent="1" source="2y1tFKn66F9KIt5L6c37-3" target="2y1tFKn66F9KIt5L6c37-4">
          <mxGeometry relative="1" as="geometry" />
        </mxCell>
        <mxCell id="2y1tFKn66F9KIt5L6c37-63" value="ENTRANCE" style="edgeLabel;html=1;align=center;verticalAlign=middle;resizable=0;points=[];" vertex="1" connectable="0" parent="2y1tFKn66F9KIt5L6c37-53">
          <mxGeometry x="-0.8456" y="6" relative="1" as="geometry">
            <mxPoint x="-12" y="-16" as="offset" />
          </mxGeometry>
        </mxCell>
        <mxCell id="2y1tFKn66F9KIt5L6c37-61" style="edgeStyle=orthogonalEdgeStyle;rounded=0;orthogonalLoop=1;jettySize=auto;html=1;exitX=1;exitY=0.5;exitDx=0;exitDy=0;entryX=0.5;entryY=0;entryDx=0;entryDy=0;" edge="1" parent="1" source="2y1tFKn66F9KIt5L6c37-3" target="2y1tFKn66F9KIt5L6c37-5">
          <mxGeometry relative="1" as="geometry" />
        </mxCell>
        <mxCell id="2y1tFKn66F9KIt5L6c37-62" value="EXIT" style="edgeLabel;html=1;align=center;verticalAlign=middle;resizable=0;points=[];" vertex="1" connectable="0" parent="2y1tFKn66F9KIt5L6c37-61">
          <mxGeometry x="-0.3758" y="12" relative="1" as="geometry">
            <mxPoint x="2" as="offset" />
          </mxGeometry>
        </mxCell>
        <mxCell id="2y1tFKn66F9KIt5L6c37-3" value="gate" style="rhombus;whiteSpace=wrap;html=1;" vertex="1" parent="1">
          <mxGeometry x="390" y="350" width="80" height="80" as="geometry" />
        </mxCell>
        <mxCell id="2y1tFKn66F9KIt5L6c37-54" style="edgeStyle=orthogonalEdgeStyle;rounded=0;orthogonalLoop=1;jettySize=auto;html=1;exitX=0.5;exitY=1;exitDx=0;exitDy=0;endArrow=none;startFill=0;" edge="1" parent="1" source="2y1tFKn66F9KIt5L6c37-4">
          <mxGeometry relative="1" as="geometry">
            <mxPoint x="410" y="1680" as="targetPoint" />
            <Array as="points">
              <mxPoint x="207" y="1680" />
            </Array>
          </mxGeometry>
        </mxCell>
        <mxCell id="2y1tFKn66F9KIt5L6c37-4" value="card[CARD_HISTORY]&amp;nbsp;← locationCode&amp;nbsp;&lt;div&gt;&lt;span style=&quot;font-size: 10px;&quot;&gt;status&amp;nbsp;← STATUS_VALID&lt;/span&gt;&lt;/div&gt;" style="rounded=0;whiteSpace=wrap;html=1;" vertex="1" parent="1">
          <mxGeometry x="90" y="1070" width="240" height="60" as="geometry" />
        </mxCell>
        <mxCell id="2y1tFKn66F9KIt5L6c37-12" style="edgeStyle=orthogonalEdgeStyle;rounded=0;orthogonalLoop=1;jettySize=auto;html=1;exitX=0.5;exitY=1;exitDx=0;exitDy=0;entryX=0.5;entryY=0;entryDx=0;entryDy=0;" edge="1" parent="1" source="2y1tFKn66F9KIt5L6c37-5" target="2y1tFKn66F9KIt5L6c37-10">
          <mxGeometry relative="1" as="geometry" />
        </mxCell>
        <mxCell id="2y1tFKn66F9KIt5L6c37-5" value="status&amp;nbsp;←&amp;nbsp;" style="rounded=0;whiteSpace=wrap;html=1;align=left;spacingLeft=12;" vertex="1" parent="1">
          <mxGeometry x="500" y="430" width="300" height="60" as="geometry" />
        </mxCell>
        <mxCell id="2y1tFKn66F9KIt5L6c37-6" value="&lt;font style=&quot;font-size: 10px;&quot;&gt;route_verificator(card, locationCode)&lt;/font&gt;" style="shape=process;whiteSpace=wrap;html=1;backgroundOutline=1;container=1;" vertex="1" parent="1">
          <mxGeometry x="570" y="440" width="220" height="40" as="geometry">
            <mxRectangle x="350" y="510" width="200" height="30" as="alternateBounds" />
          </mxGeometry>
        </mxCell>
        <mxCell id="2y1tFKn66F9KIt5L6c37-14" style="edgeStyle=orthogonalEdgeStyle;rounded=0;orthogonalLoop=1;jettySize=auto;html=1;exitX=0.5;exitY=1;exitDx=0;exitDy=0;entryX=0.5;entryY=0;entryDx=0;entryDy=0;" edge="1" parent="1" source="2y1tFKn66F9KIt5L6c37-9" target="2y1tFKn66F9KIt5L6c37-11">
          <mxGeometry relative="1" as="geometry" />
        </mxCell>
        <mxCell id="2y1tFKn66F9KIt5L6c37-9" value="&lt;div&gt;locationCode ← | locationCode |&lt;/div&gt;&lt;div&gt;card[CARD_HISTORY]&amp;nbsp;← | card[CARD_HISTORY] |&lt;/div&gt;&lt;div&gt;&lt;br&gt;&lt;/div&gt;&lt;div style=&quot;text-align: left;&quot;&gt;dom0 ← card[CARD_HISTORY] / MAX_LOCAL : int&lt;/div&gt;&lt;div style=&quot;text-align: left;&quot;&gt;loc0&amp;nbsp; &amp;nbsp;←&amp;nbsp;&lt;span style=&quot;color: light-dark(rgb(0, 0, 0), rgb(255, 255, 255)); background-color: transparent;&quot;&gt;card[CARD_HISTORY] % MAX_LOCAL&lt;/span&gt;&lt;/div&gt;&lt;div style=&quot;text-align: left;&quot;&gt;dom1 ←&amp;nbsp;&lt;span style=&quot;font-size: 11px; background-color: transparent; color: light-dark(rgb(0, 0, 0), rgb(255, 255, 255));&quot;&gt;locationCode / MAX_LOCAL : int&lt;/span&gt;&lt;/div&gt;&lt;div style=&quot;text-align: left;&quot;&gt;loc1&amp;nbsp; &amp;nbsp;←&amp;nbsp;&lt;span style=&quot;font-size: 11px; background-color: transparent; color: light-dark(rgb(0, 0, 0), rgb(255, 255, 255));&quot;&gt;ocationCode % MAX_LOCAL&lt;/span&gt;&lt;/div&gt;" style="rounded=0;whiteSpace=wrap;html=1;align=center;spacingLeft=6;" vertex="1" parent="1">
          <mxGeometry x="480" y="630" width="340" height="120" as="geometry" />
        </mxCell>
        <mxCell id="2y1tFKn66F9KIt5L6c37-13" style="edgeStyle=orthogonalEdgeStyle;rounded=0;orthogonalLoop=1;jettySize=auto;html=1;exitX=0.5;exitY=1;exitDx=0;exitDy=0;entryX=0.5;entryY=0;entryDx=0;entryDy=0;" edge="1" parent="1" source="2y1tFKn66F9KIt5L6c37-10" target="2y1tFKn66F9KIt5L6c37-9">
          <mxGeometry relative="1" as="geometry" />
        </mxCell>
        <mxCell id="2y1tFKn66F9KIt5L6c37-23" style="edgeStyle=orthogonalEdgeStyle;rounded=0;orthogonalLoop=1;jettySize=auto;html=1;dashed=1;strokeWidth=2;endArrow=doubleBlock;endFill=1;" edge="1" parent="1" source="2y1tFKn66F9KIt5L6c37-10">
          <mxGeometry relative="1" as="geometry">
            <mxPoint x="960" y="550" as="targetPoint" />
          </mxGeometry>
        </mxCell>
        <mxCell id="2y1tFKn66F9KIt5L6c37-24" value="STATUS_ERROR" style="edgeLabel;html=1;align=center;verticalAlign=middle;resizable=0;points=[];" vertex="1" connectable="0" parent="2y1tFKn66F9KIt5L6c37-23">
          <mxGeometry x="-0.4553" y="1" relative="1" as="geometry">
            <mxPoint y="-19" as="offset" />
          </mxGeometry>
        </mxCell>
        <mxCell id="2y1tFKn66F9KIt5L6c37-10" value="status" style="rhombus;whiteSpace=wrap;html=1;" vertex="1" parent="1">
          <mxGeometry x="610" y="510" width="80" height="80" as="geometry" />
        </mxCell>
        <mxCell id="2y1tFKn66F9KIt5L6c37-19" style="edgeStyle=orthogonalEdgeStyle;rounded=0;orthogonalLoop=1;jettySize=auto;html=1;exitX=0.5;exitY=1;exitDx=0;exitDy=0;entryX=0.5;entryY=0;entryDx=0;entryDy=0;" edge="1" parent="1" source="2y1tFKn66F9KIt5L6c37-11" target="2y1tFKn66F9KIt5L6c37-15">
          <mxGeometry relative="1" as="geometry" />
        </mxCell>
        <mxCell id="2y1tFKn66F9KIt5L6c37-21" value="= STATUS_INVALID" style="edgeLabel;html=1;align=center;verticalAlign=middle;resizable=0;points=[];" vertex="1" connectable="0" parent="2y1tFKn66F9KIt5L6c37-19">
          <mxGeometry x="-0.2889" y="3" relative="1" as="geometry">
            <mxPoint x="-8" as="offset" />
          </mxGeometry>
        </mxCell>
        <mxCell id="2y1tFKn66F9KIt5L6c37-49" style="edgeStyle=orthogonalEdgeStyle;rounded=0;orthogonalLoop=1;jettySize=auto;html=1;exitX=1;exitY=0.5;exitDx=0;exitDy=0;entryX=1;entryY=0.5;entryDx=0;entryDy=0;" edge="1" parent="1" source="2y1tFKn66F9KIt5L6c37-11" target="2y1tFKn66F9KIt5L6c37-17">
          <mxGeometry relative="1" as="geometry">
            <Array as="points">
              <mxPoint x="890" y="830" />
              <mxPoint x="890" y="1075" />
            </Array>
          </mxGeometry>
        </mxCell>
        <mxCell id="2y1tFKn66F9KIt5L6c37-11" value="status" style="rhombus;whiteSpace=wrap;html=1;" vertex="1" parent="1">
          <mxGeometry x="610" y="790" width="80" height="80" as="geometry" />
        </mxCell>
        <mxCell id="2y1tFKn66F9KIt5L6c37-18" style="edgeStyle=orthogonalEdgeStyle;rounded=0;orthogonalLoop=1;jettySize=auto;html=1;exitX=0.5;exitY=1;exitDx=0;exitDy=0;entryX=0.5;entryY=0;entryDx=0;entryDy=0;" edge="1" parent="1" source="2y1tFKn66F9KIt5L6c37-15" target="2y1tFKn66F9KIt5L6c37-17">
          <mxGeometry relative="1" as="geometry" />
        </mxCell>
        <mxCell id="2y1tFKn66F9KIt5L6c37-15" value="&lt;font style=&quot;font-size: 11px;&quot;&gt;distance ← distance +&amp;nbsp;&lt;/font&gt;&lt;span style=&quot;font-size: 11px; background-color: transparent; color: light-dark(rgb(0, 0, 0), rgb(255, 255, 255));&quot;&gt;locationData[dom1][-1][LOCATION_ABS_DISTANCE]&lt;/span&gt;" style="rounded=0;whiteSpace=wrap;html=1;" vertex="1" parent="1">
          <mxGeometry x="452.5" y="930" width="395" height="40" as="geometry" />
        </mxCell>
        <mxCell id="2y1tFKn66F9KIt5L6c37-36" style="edgeStyle=orthogonalEdgeStyle;rounded=0;orthogonalLoop=1;jettySize=auto;html=1;exitX=0.5;exitY=1;exitDx=0;exitDy=0;entryX=0.5;entryY=0;entryDx=0;entryDy=0;" edge="1" parent="1" source="2y1tFKn66F9KIt5L6c37-17" target="2y1tFKn66F9KIt5L6c37-25">
          <mxGeometry relative="1" as="geometry" />
        </mxCell>
        <mxCell id="2y1tFKn66F9KIt5L6c37-17" value="&lt;div&gt;S0&amp;nbsp;← locationData[dom0][loc0][LOCATION_ABS_DISTANCE]&lt;/div&gt;&lt;div&gt;S1&amp;nbsp;← locationData[dom1][loc1][LOCATION_ABS_DISTANCE]&lt;/div&gt;&lt;div&gt;&lt;br&gt;&lt;/div&gt;&lt;div&gt;distance&amp;nbsp;← distance + | S1 - S0 |&lt;/div&gt;&lt;div&gt;totalFee&amp;nbsp;← distance * basePrice&lt;/div&gt;" style="rounded=0;whiteSpace=wrap;html=1;" vertex="1" parent="1">
          <mxGeometry x="460" y="1030" width="380" height="90" as="geometry" />
        </mxCell>
        <mxCell id="2y1tFKn66F9KIt5L6c37-29" style="edgeStyle=orthogonalEdgeStyle;rounded=0;orthogonalLoop=1;jettySize=auto;html=1;exitX=0;exitY=0.5;exitDx=0;exitDy=0;entryX=0.5;entryY=0;entryDx=0;entryDy=0;" edge="1" parent="1" source="2y1tFKn66F9KIt5L6c37-25" target="2y1tFKn66F9KIt5L6c37-28">
          <mxGeometry relative="1" as="geometry" />
        </mxCell>
        <mxCell id="2y1tFKn66F9KIt5L6c37-38" value="&amp;lt; totalFee" style="edgeLabel;html=1;align=center;verticalAlign=middle;resizable=0;points=[];" vertex="1" connectable="0" parent="2y1tFKn66F9KIt5L6c37-29">
          <mxGeometry x="-0.4574" y="-3" relative="1" as="geometry">
            <mxPoint y="-7" as="offset" />
          </mxGeometry>
        </mxCell>
        <mxCell id="2y1tFKn66F9KIt5L6c37-31" style="edgeStyle=orthogonalEdgeStyle;rounded=0;orthogonalLoop=1;jettySize=auto;html=1;exitX=1;exitY=0.5;exitDx=0;exitDy=0;entryX=0.5;entryY=0;entryDx=0;entryDy=0;" edge="1" parent="1" source="2y1tFKn66F9KIt5L6c37-25" target="2y1tFKn66F9KIt5L6c37-26">
          <mxGeometry relative="1" as="geometry" />
        </mxCell>
        <mxCell id="2y1tFKn66F9KIt5L6c37-37" value="≥ totalFee" style="edgeLabel;html=1;align=center;verticalAlign=middle;resizable=0;points=[];" vertex="1" connectable="0" parent="2y1tFKn66F9KIt5L6c37-31">
          <mxGeometry x="-0.3767" y="3" relative="1" as="geometry">
            <mxPoint x="-18" y="-7" as="offset" />
          </mxGeometry>
        </mxCell>
        <mxCell id="2y1tFKn66F9KIt5L6c37-25" value="&lt;span style=&quot;font-size: 10px;&quot;&gt;card[CARD_BALANCE]&lt;/span&gt;" style="rhombus;whiteSpace=wrap;html=1;" vertex="1" parent="1">
          <mxGeometry x="585" y="1210" width="130" height="120" as="geometry" />
        </mxCell>
        <mxCell id="2y1tFKn66F9KIt5L6c37-35" style="edgeStyle=orthogonalEdgeStyle;rounded=0;orthogonalLoop=1;jettySize=auto;html=1;exitX=0.5;exitY=1;exitDx=0;exitDy=0;entryX=0.5;entryY=0;entryDx=0;entryDy=0;" edge="1" parent="1" source="2y1tFKn66F9KIt5L6c37-26" target="2y1tFKn66F9KIt5L6c37-32">
          <mxGeometry relative="1" as="geometry">
            <Array as="points">
              <mxPoint x="848" y="1510" />
              <mxPoint x="650" y="1510" />
            </Array>
          </mxGeometry>
        </mxCell>
        <mxCell id="2y1tFKn66F9KIt5L6c37-26" value="&lt;font style=&quot;font-size: 10px;&quot;&gt;card[CARD_BALANCE]&amp;nbsp;← card[CARD_BALANCE - totalFee&lt;/font&gt;&lt;div&gt;&lt;font style=&quot;font-size: 10px;&quot;&gt;status&amp;nbsp;← STATUS_VALID&lt;/font&gt;&lt;/div&gt;" style="rounded=0;whiteSpace=wrap;html=1;" vertex="1" parent="1">
          <mxGeometry x="704" y="1370" width="287" height="60" as="geometry" />
        </mxCell>
        <mxCell id="2y1tFKn66F9KIt5L6c37-33" style="edgeStyle=orthogonalEdgeStyle;rounded=0;orthogonalLoop=1;jettySize=auto;html=1;exitX=0.5;exitY=1;exitDx=0;exitDy=0;entryX=0.5;entryY=0;entryDx=0;entryDy=0;" edge="1" parent="1" source="2y1tFKn66F9KIt5L6c37-27" target="2y1tFKn66F9KIt5L6c37-32">
          <mxGeometry relative="1" as="geometry">
            <Array as="points">
              <mxPoint x="450" y="1510" />
              <mxPoint x="650" y="1510" />
            </Array>
          </mxGeometry>
        </mxCell>
        <mxCell id="2y1tFKn66F9KIt5L6c37-27" value="status&amp;nbsp;← STATUS_INVALID" style="rounded=0;whiteSpace=wrap;html=1;" vertex="1" parent="1">
          <mxGeometry x="360" y="1430" width="180" height="50" as="geometry" />
        </mxCell>
        <mxCell id="2y1tFKn66F9KIt5L6c37-30" style="edgeStyle=orthogonalEdgeStyle;rounded=0;orthogonalLoop=1;jettySize=auto;html=1;exitX=0.5;exitY=1;exitDx=0;exitDy=0;entryX=0.5;entryY=0;entryDx=0;entryDy=0;" edge="1" parent="1" source="2y1tFKn66F9KIt5L6c37-28" target="2y1tFKn66F9KIt5L6c37-27">
          <mxGeometry relative="1" as="geometry" />
        </mxCell>
        <mxCell id="2y1tFKn66F9KIt5L6c37-28" value="output(Saldo_kurang)" style="shape=parallelogram;perimeter=parallelogramPerimeter;whiteSpace=wrap;html=1;fixedSize=1;" vertex="1" parent="1">
          <mxGeometry x="370" y="1350" width="160" height="50" as="geometry" />
        </mxCell>
        <mxCell id="2y1tFKn66F9KIt5L6c37-59" style="edgeStyle=orthogonalEdgeStyle;rounded=0;orthogonalLoop=1;jettySize=auto;html=1;exitX=0.5;exitY=1;exitDx=0;exitDy=0;endArrow=none;startFill=0;" edge="1" parent="1" source="2y1tFKn66F9KIt5L6c37-32">
          <mxGeometry relative="1" as="geometry">
            <mxPoint x="410" y="1680" as="targetPoint" />
            <Array as="points">
              <mxPoint x="650" y="1680" />
            </Array>
          </mxGeometry>
        </mxCell>
        <mxCell id="2y1tFKn66F9KIt5L6c37-32" value="card[CARD_HISTORY]&amp;nbsp;← CARD_HISTORY_DEFAULT" style="rounded=0;whiteSpace=wrap;html=1;" vertex="1" parent="1">
          <mxGeometry x="487.5" y="1550" width="325" height="60" as="geometry" />
        </mxCell>
        <mxCell id="2y1tFKn66F9KIt5L6c37-45" value="" style="endArrow=classic;html=1;rounded=0;entryX=0.5;entryY=0;entryDx=0;entryDy=0;startArrow=ERmandOne;startFill=0;dashed=1;strokeWidth=2;" edge="1" parent="1" target="2y1tFKn66F9KIt5L6c37-1">
          <mxGeometry width="50" height="50" relative="1" as="geometry">
            <mxPoint x="430" y="10" as="sourcePoint" />
            <mxPoint x="460" y="20" as="targetPoint" />
          </mxGeometry>
        </mxCell>
        <mxCell id="2y1tFKn66F9KIt5L6c37-60" value="" style="endArrow=doubleBlock;html=1;rounded=0;endFill=1;dashed=1;strokeWidth=2;" edge="1" parent="1">
          <mxGeometry width="50" height="50" relative="1" as="geometry">
            <mxPoint x="400" y="1680" as="sourcePoint" />
            <mxPoint x="400" y="1770" as="targetPoint" />
          </mxGeometry>
        </mxCell>
      </root>
    </mxGraphModel>
  </diagram>
</mxfile>
